# xmcd CD database file
#
# Track frame offsets:
#	150
#	7849
#	40440
#	64859
#	97685
#	126501
#	149338
#	172770
#	200837
#	224183
#
# Disc length: 3093 seconds
#
# Revision: 1
# Processed by: cddbd v1.5.2PL0 Copyright (c) Steve Scherf et al.
# Submitted via: CDex 1.51
#
DISCID=930c130a
DTITLE=Dallmayr Kaffee - Lounge
DYEAR=2006
DGENRE=Easy Listening
TTITLE0=Intro
TTITLE1=Nambuco
TTITLE2=Sidamo
TTITLE3=Neiva
TTITLE4=Nokondi
TTITLE5=Nakuru
TTITLE6=Antigua
TTITLE7=Kayumas
TTITLE8=Chanchamayo
TTITLE9=Outro
EXTD=YEAR: 2006
EXTT0=
EXTT1=
EXTT2=
EXTT3=
EXTT4=
EXTT5=
EXTT6=
EXTT7=
EXTT8=
EXTT9=
PLAYORDER=
